<?xml version="1.0" encoding="utf-8"?>
<!-- Generator: Adobe Illustrator 19.0.0, SVG Export Plug-In . SVG Version: 6.00 Build 0)  -->
<svg version="1.1" id="Capa_1" xmlns="http://www.w3.org/2000/svg" xmlns:xlink="http://www.w3.org/1999/xlink" x="0px" y="0px"
	 viewBox="-233 235 32 32" style="enable-background:new -233 235 32 32;" xml:space="preserve">
<style type="text/css">
	.st0{fill:#BFBFBF;}
</style>
<title></title>
<g id="Layer_7">
	<path class="st0" d="M-213.2,250.7c2.6-2.1,3.1-6,0.9-8.6c-2.1-2.6-6-3.1-8.6-0.9c-2.6,2.1-3.1,6-0.9,8.6c0.3,0.3,0.6,0.7,0.9,0.9
		c-4.4,1.6-7.4,5.8-7.4,10.6v1h22.5v-1C-205.8,256.5-208.7,252.3-213.2,250.7z M-221.1,245.9c0-2.3,1.8-4.1,4.1-4.1s4.1,1.8,4.1,4.1
		c0,2.3-1.8,4.1-4.1,4.1S-221.1,248.1-221.1,245.9z M-226.1,260.2c0.6-5.1,5.1-8.7,10.2-8.1c4.3,0.5,7.7,3.9,8.1,8.1H-226.1z"/>
</g>
</svg>
